<?xml version="1.0" encoding="UTF-8"?>
<svg id="Layer_2" data-name="Layer 2" xmlns="http://www.w3.org/2000/svg" viewBox="0 0 387.53 146.45">
  <defs>
    <style>
      .cls-1 {
        fill: #5069af;
      }

      .cls-2 {
        fill: #e96d34;
      }

      .cls-3 {
        fill: #3d4f85;
      }

      .cls-4 {
        fill: #283458;
      }
    </style>
  </defs>
  <g id="Layer_1-2" data-name="Layer 1">
    <path class="cls-4" d="m32.55,126.04c.09-.52-.51-.65-.66-1.06.39-.19.74-.25,1.09-.04.19.44.54.82.55,1.36-.43.29-.68-.08-.98-.25Z"/>
    <path class="cls-2" d="m49.43,0c.26,1,.84,2,0,3-.15.05-.22.13-.1.27,0,0,0-.02,0-.02.1.06.21.13.31.19.08.07.17.14.25.22.59.61,1.39,1.19.92,2.18-.26.55-2.1.47-2.79-.04-.25-.18-.4-.57-.7.06-.62,1.27-1.12,1.26-1.88.08.01-.07,0-.13-.05-.18.11-.24.14-.49.02-.74.02-.06.02-.13,0-.19.38-.46.38-.75-.13-1.24-1.02-.97-.99-1.59-.2-2.1,0,0,.09.02.09.02l.09-.03c.37.17.73.35,1.1.52.57.22.2-.26.29-.39.33-.56.96-.77,1.4-1.2.15-.06.29-.11.44-.17.03-.05.06-.1.08-.15,0-.02-.04-.05-.07-.08.31,0,.61,0,.92,0Z"/>
    <path class="cls-1" d="m52.71,146.4c-8.45.01-16.89.02-25.34.03-4.38,0-8.75,0-13.13,0-.48,0-1,.14-1.42-.23,1.94-3.05,3.24-6.35,3.99-9.89.24-1.12.63-2.19,1.15-3.21.61-1.19.8-2.44.39-3.75-.07-.21-.07-.46-.04-.68.31-1.96-.41-3.62-1.36-5.28-1.11-1.95-2.03-4-3.08-5.99-.73-1.38-.89-2.9-1.27-4.37-.66-2.53-1.18-3.13-4.44-3.49-1.8-.19-3.64.11-5.39-.48-2.27-.76-3.04-2.44-2.07-4.6.41-.91.6-1.62-.18-2.48-.63-.7-.18-1.44.82-1.54.41-.04.98.13,1.13-.29.16-.44-.42-.61-.73-.85-1.13-.91-1.22-1.45-.32-2.68.49-.67.5-1.21-.03-1.83-.39-.46-.75-.97-1.02-1.51-.66-1.28-.48-1.8.82-2.43,1.48-.72,2.86-1.6,4.16-2.6.41-.32.86-.61,1.12-1.13-.5-.41-1.2-.56-1.57-1.38.53.28.91.53,1.33.68.49.18.92.02.78-.56-.5-2.12.1-3.93,1.32-5.66.56-.8.89-1.76,1.38-2.61,1.01-1.76,2.72-2.71,4.39-3.72.64-.39,1.1-.59.95-1.76-.18-1.38.5-2.97,1.86-3.93.37-.26.75-.51,1.13-.76.43,1.02,1.45,1.73,1.52,2.96.02.42.3.81.65,1.13.33.31.63.7.62,1.16-.03,1.2.63,2.12,1.18,3.07.63,1.1,1.92,1.2,2.8.26.94-1,1.48-2.23,1.97-3.67.71,1.17,1.56,1.94,2.53,2.59,1.21.81,1.57.69,2.58-.43.62-.68.7-1.49.6-2.23-.24-1.8.41-3.53.29-5.31-.01-.19.16-.4.25-.6.07,0,.13,0,.19-.03.78.36,1.55.72,2.33,1.09.29.12.52.4.89.33l-.02-.02c.01.17.13.23.28.25.22.25.64.33.65.77-.52-.26-1.11-.38-1.55-.82-.31-.31-.74-.52-1,.11v-.02c-.45-.27-.86-.68-1.53-.68,1.04,1.47,2.85,1.48,4.04,2.51.05.42.29.64.71.69.54.55.81,1.46,1.83,1.34.04.46-.34.72-.53,1.07-.37.69-.59,1.35-.16,2.08l-.02.03c-.83.08-1.62-.37-2.47-.2-.88.18-1.41.54-.94,1.53.45.93,1.23,1.63,2.12,1.98.74.28.88.61.88,1.29,0,.51.26,1.11.69,1.31.49.22.67-.41.97-.73.34-.38.58-.72.65-1.26.03-.22.19-.86.9-.42.75.47,1.41-.31,1.9-.73.44-.38-.13-1.01-.52-1.18-1.04-.47-1.24-1.34-1.37-2.3.15.02.3.04.46.05.19.26.3.59.73.6,1.45.02,2.65.7,3.81,1.47l-.02-.03c.02.13.04.26.06.4-.03.13-.05.26-.08.38-.39-.4-.67-.95-1.33-1.01-.04-.12-.11-.19-.22-.1-.02.02.05.17.08.26.58.63.84,1.45,1.26,2.18.22.15.44.3.66.44.19.23.38.46.72.46-.14.4-.79,0-.85.56.59.37,1.2.69,1.87.93.45.16.51-.09.61-.38,1.14,1.1,2.4,2.05,3.63,3.03,1.3,1.04,1.61,2.04,1.19,3.16-.1-.93-.36-1.76-1.25-2.19.4.79.36,1.76.99,2.43.65.64.56,1.37.24,2.12-.31.72.32,1.17.5,1.75-.56.83-.44,1.53.4,2.09-.05,1.3.21,2.61-.21,3.89-.38-.13-.21-.49-.31-.73.27-.83.52-1.67-.07-2.54-.26,1.12-.52,2.19-.77,3.26-.31.76-.62,1.52-.93,2.28-1.15.36-1.82,1.07-1.95,2.33-.05.46-.38.88-.58,1.32-.09-.17-.18-.35-.27-.52.09-.5.58-.92.28-1.73-.36.79-.68,1.36-.71,2.04l.02-.02c-.66.32-.99.82-.87,1.57-.01.18-.02.35-.03.53-.09.68-.17,1.36-.26,2.03-.17-.54-.37-1.01-1.08-.69-.98-.17-.65.76-.96,1.15-.7.37-.64.97-.47,1.6-.45.53-.95,1.05-.61,1.84-.9,1.13-1,2.67-1.92,3.81-.53.65-.94,1.39-1.78,1.7-.08-.08-.15-.16-.23-.23.28-.26.68-.41.78-.89-.41.08-.8.16-1.19.24-1.17.28-2.48-.01-3.5.88-.22.01-.45.03-.67.04-.36-.21-.7-.15-1.09.04.15.41.75.54.66,1.06.88,2.03,1.97,3.97,3.46,5.6,4.41,4.81,7.61,10.33,9.99,16.36.95,2.4,1.91,4.8,2.61,7.29Zm-11.29-59.7h.02c-.37-.53-.92-.69-1.53-.63-.57.05-.6.33-.23.71.4.89.76,1.79,1.21,2.66.49.96,1.01,1.05,1.55.19.32-.51.55-.39.86-.18.71.49,1.07-.03,1.09-.53.06-1.19-.09-2.38-.47-3.53-.65-.9-.95-.2-1.36.26-.35.39-.05,1.22-.88,1.26h.02c-.09-.06-.17-.13-.26-.21Zm-14.19-7.32l.02.02c-.51-.69-1.24-.77-2-.67-.55.07-.61.36-.21.74.67,1.06,1.07,2.24,1.57,3.38.22.51.7.82,1.12.82.38,0,.77-.45.87-.93.14-.67.32-.82.79-.2.2.27.51.53.94.31.32-.17.57-.36.58-.76.03-1.48-.32-2.92-.49-4.37-.68-.59-1.13-.44-1.72.38-.4.55-.18,1.41-.93,1.76-.06-.07-.12-.14-.18-.21-.12-.09-.24-.17-.35-.26Zm6.28,4.77c.28.68.86,1.16,1.13,1.87.17.44.81.67,1.21.24.38-.4.41-1.32,1.29-.52.08.07.68-.24.61-.64-.17-.93-.03-1.93-.64-2.75-.21-.64-.57-.49-.89-.13-.19.22-.36.51-.4.79-.09.66-.35.81-.96.52-.36-.18-.78-.3-1.2-.14-.43.17-.62.41-.15.77Zm-17.1-14.79c-.98,1.26-1.08,2.04-.37,2.81-.06-.99.09-1.9.37-2.81Z"/>
    <path class="cls-2" d="m15.84,42.61c.22-.28.17-.55-.02-.81.04-.06.03-.11-.03-.14-.03-2.06,1.4-2.18,3.43-1.69,2.41.59,4.87,4.28,4.82,6.78-.01.78,0,1.57.23,2.43.42-.59.83-1.19,1.26-1.76,2-2.64,4.71-3.61,7.93-3.25,1.43.16,2.54,1.48,2.47,2.8-.01.19.02.45-.09.55-1.46,1.31-1.09,3.81-3.12,4.73,0,0-.06.02-.06.02l.02.05c-.4,1.2-1.17,2.07-2.34,2.56,0,0-.07-.02-.07-.02l-.05.05c-.92.24-1.85.25-3.06.22,1.34,1.1,2.19,2.29,2.71,3.71.02.07.05.14.07.21,0,.61.01,1.21.03,1.82.03,1.14-.43,2-1.52,2.41-1.01.38-1.64-.24-2.16-1-.12-.17-.25-.27-.46-.27-.04-.07-.1-.09-.17-.06-.18-.05-.36-.11-.54-.16,0,0-.05-.06-.05-.06l-.07.02c-1.21-.52-1.63-1.63-2.03-2.75-.03-.08-.05-.15-.08-.23.08-.51-.21-.93-.34-1.45-.25.38-.48.72-.73,1.1-.51-.24-.56-.67-.59-1.12.03-.16.1-.33-.09-.42-.04-.02-.15.11-.22.17-.04.07-.08.15-.11.22-.08.01-.12.06-.13.14-.55.57-1.09,1.15-1.79,1.56-.7.4-1.41.64-2.21.29-.04-.07-.09-.08-.15-.05-.33-.24-.69-.28-1.07-.13-.8.32-1.61.35-2.21-.32-.7-.77-.94-1.73-.58-2.75.47-1.37,1.47-2.27,2.71-2.93.3-.16.62-.28.93-.42,0,0,.1.02.1.02l.08-.06h1.98c.04-.08.08-.17.13-.25-1.96-1.22-3.41-2.73-3.02-5.23.05-.08.09-.16.14-.24,0-.16-.01-.32-.02-.49-.04-.08-.08-.16-.12-.24-.37-1.18-.4-2.34.21-3.46,0,0,.06-.04.06-.04v-.07Z"/>
    <path class="cls-2" d="m33,66.34c-.09.2-.26.41-.25.6.12,1.78-.53,3.51-.29,5.31.1.74.02,1.55-.6,2.23-1.01,1.12-1.37,1.24-2.58.43-.97-.65-1.82-1.42-2.53-2.59-.49,1.45-1.04,2.68-1.97,3.67-.88.94-2.16.84-2.8-.26-.55-.95-1.21-1.87-1.18-3.07.01-.46-.29-.85-.62-1.16-.34-.32-.62-.71-.65-1.13-.06-1.23-1.09-1.94-1.52-2.96-.46-.84-.06-1.22.74-1.42.7-.17,1.4-.11,2.11-.08,0,0-.03-.01-.03-.01.23.09.46.17.69.26.1.71.71.49,1.13.63h-.01c.07.23.25.27.47.24h-.02c.09.1.18.22.27.34.92.41,1.48,1.22,2.14,1.92.62.61,1.13.42,1.46-.27.53-1.12.99-2.28,1.92-3.14.32-.3.08-.43-.1-.6.85-.77,1.75-1.42,2.97-1.49,1.58-.09,1.93.59,1.42,1.89-.22.17-.27.39-.2.65Z"/>
    <path class="cls-2" d="m39.3,34.82c1.14.59,2.52.97,2.35,2.7-.07.08-.15.16-.22.23h0c-.07.03-.15.05-.22.07-.68.05-1.28.33-1.85.68-.15-.06-.2.04-.22.16-.24.1-.15.49-.47.52-.15-.05-.2.04-.23.16-.69.63-1.39.69-2.05-.01-.11.12-.2.18-.2.23.16,1.82.09,1.95-1.56,2.77-.33.16-.66.33-1,.49-.15-.04-.21.05-.23.18-.16,0-.31,0-.47,0-.16-.28-.44-.16-.68-.2l-.02-.03c0-.13-.05-.22-.2-.18-.89-.09-.97-.88-1.3-1.46.02-.08,0-.14-.09-.17-.18-.72.17-1.39.23-2.09.18-.21.38-.42,0-.63-.17.03-.34.07-.51.1-.14-.06-.28-.07-.38.08-.19,0-.39-.01-.56.03-1.77.48-3.47-.97-3.07-2.77.22-1.01.83-1.93,1.54-2.71.31-.34.75-.3,1.17-.28.29.22.59.34,1.04.2-.24-.34-.42-.6-.6-.86-.03-.09-.07-.18-.1-.27.01-.06,0-.11-.06-.15.2-1.08,1.39-1.46,1.76-2.42,0,0,.06-.03.06-.03v-.07c.18-.21.19-.47.18-.74.07-.23.13-.46.2-.68.7-.78,1.2-.28,1.65.28,1.46,1.79,1.24,3.86.98,5.94-.06.44-.36.83-.27,1.45.54-.16,1.06-.31,1.57-.46.14-.04.28-.08.42-.12,1.08,0,2.16,0,3.24,0,0,0,.06.06.06.06l.08-.02Zm-3.2,4.18c-.05.06-.14.12-.13.15.04.09.11.16.16.24.05-.04.14-.1.13-.13-.04-.09-.1-.18-.16-.27Z"/>
    <path class="cls-2" d="m9.97,27.7c.83-.93,1.92-.28,2.87-.48,0,0,.07.07.07.07h.09c1.38.61,2.45,1.6,3.4,2.75.2.25.31.66.75.59.47-.07.53-.5.64-.85.71-2.23,1.88-4.05,4.25-4.79.12.02.25.04.37.06.91.42,1.05,1.11.72,1.98-.07.03-.1.08-.07.15-.42.58-.49,1.15-.2,1.86.25.62.45,1.37-.25,1.93-.15.07-.44.17-.43.21.04.24.31.22.49.31.37.58.84,1.13.66,1.9-.23.1-.2.28-.16.47-.17.8.21,1.66-.64,2.39-.94.8-2.39.8-3.11-.26-.35-.52-.85-.94-1.34-1.48-.6,1.02-.76,2.28-1.65,3.11-.16-.06-.31-.1-.39.12-.46.04-.91.46-1.37,0-.07-.05-.14-.11-.21-.16-.86-.16-1-.96-1.33-1.56-.35-.62-.58-1.31-.86-1.97.04-.06.04-.12,0-.18.11-.25.23-.5.34-.76.1-.1.21-.2.31-.3-.1-.03-.2-.05-.3-.08-.62-.19-1.06-.85-1.04-1.24.08-1.53-1.01-2.46-1.61-3.63.03-.06.04-.12.03-.18Z"/>
    <path class="cls-2" d="m17.19,18.26c-.72-.76-1.03-1.69-1.03-2.72-.04-.07-.09-.13-.13-.2-.64-.75.23-1.56-.11-2.32-.02-.12-.04-.25-.05-.37.57-.98,1.4-.91,2.27-.55,1.54.65,2.19,2.01,2.73,3.46,0,.16-.11.41.14.42.18,0,.27-.22.26-.42,1-1.52,2.28-2.51,4.23-2.3,1.1.12,1.65,1.07,1.3,2.09-.32.92-.73,1.77-1.17,2.63-.43.83-.94,1.34-1.82,1.52-.12.04-.34.07-.35.11-.02.2.14.3.32.37.47.76,1,1.46.97,2.45-.02.78-.23,1.3-1,1.53-.04-.05-.09-.06-.15-.04-.41-.13-.61-.63-1.11-.6-.08-.02-.17-.04-.25-.07-.48-.18-.81-.5-1.05-.96-.57-1.05-1.27-1.18-2.04-.33-.59.65-1.32.4-1.99.53-.08.05-.16.1-.23.14-.83.22-1.22-.33-1.59-.91-.03-.3-.06-.6-.1-.89.29-1.03.96-1.72,1.93-2.13.16.02.31-.04.32-.21.01-.18-.16-.2-.3-.24Z"/>
    <path class="cls-2" d="m49.91,21.83c-.85-.62-1.53-1.37-1.85-2.4.07-.04.11-.1.1-.18.42-1.3,1.61-1.39,2.66-1.73,0,0,.1,0,.1,0l.09-.04c.43.18.72.15,1.19-.14.94-.58,2.18-.48,3.13-1.19.32-.24.52.15.68.41.47.79.4,1.61.09,2.42-.41,1.06-1.13,1.88-2.07,2.52-1.05.72-1.05.73.04,1.47,1.01.68,1.72,1.61,2.22,2.7.14.3.23.65.26.98.04.44.19.95-.19,1.3-.47.42-.81-.19-1.23-.25-.06-.04-.12-.09-.17-.13-.91-.16-1.79-.25-2.67-.74-.46-.26-1.41.07-2.2-.13-1.08-.27-1.39-1.05-1.69-1.87-.28-.78.43-1.22.85-1.72.24-.29.58-.49.87-.73.3-.12.38-.24,0-.38,0,0-.03-.01-.03-.01-.06-.05-.12-.1-.17-.14Z"/>
    <path class="cls-2" d="m39.04,9.39c.23-.67.95-1.06,1.02-1.81.02-.08.05-.15.07-.23.25-.37-.15-1.09.58-1.19.62-.08.92.44,1.23.85.73.98.99,2.08.86,3.29-.04.44.03.9.05,1.35.13.38.27.13.42.01,1.03-.35,2.03-.8,3.17-.73.66.04,1.29.18,1.82.56.88.64.82,1.38-.13,1.8-.54.24-.93.63-1.24,1.11-.31.48-.69.8-1.31.66-.15-.22-.47-.31-.57-.15-.14.22.15.43.3.63-.11,1.14-1.41,2.31-2.51,2.27-1.15-.04-1.87-.86-1.81-2.27.04-.98-.3-1.02-1.01-.61-.2.11-.42.18-.63.26-.06-.04-.12-.03-.18,0-1.05-.28-1.89-1.27-1.88-2.24,0-1.12.87-2.28,1.86-2.49.43-.21.17-.41-.01-.61-.03-.09-.05-.19-.08-.28.02-.07.02-.14,0-.2Z"/>
    <path class="cls-2" d="m39.66,24.54c.44-1.13,1.3-1.9,2.21-2.64.48-.39.87-.13,1.16.25.67.9.97,1.92.49,2.99-.32.73-.25.96.61.96,1.16,0,2.11.79,2.46,1.86.11.35.19.78-.17.92-1.26.49-2.5,1.32-3.94.56-.47-.25-.63-.11-.59.37.08.92-.36,1.51-1.17,1.87-.06-.02-.12-.01-.18.03-1.12-.35-.77-1.57-1.33-2.25,0-.12.02-.25.03-.37.11-.27.22-.55.37-.93-1.28.24-1.75-.78-2.44-1.41-.28-.25-.52-.69-.25-1.13.22-.35.56-.47.97-.45.42.02.83,0,1.25,0,.2.13.41.25.61.38.19-.36-.02-.67-.1-1.01Z"/>
    <path class="cls-2" d="m52.24,11.05q.86-1.74-.13-3.29c-.1-.16-.2-.32-.31-.48.03-.05.04-.1.03-.16.34-1.22,1.36-1.45,2.41-1.62.29.2.41.06.46-.23.72-.4,1.56-.48,2.28-.98.66-.47.82.36.89.75.22,1.23-.1,2.32-1.05,3.2-.27.25-.67.39-.8.88,1.14.55,2.11,1.33,2.59,2.56.22.56.47,1.14-.04,1.69-.07-.02-.13-.02-.2,0-1.32-.21-2.54-.87-3.97-.6-1.12.21-1.63-.73-2.1-1.58,0-.06-.02-.11-.07-.15Z"/>
    <path class="cls-2" d="m31.58,21.29c-.72.14-1.21-.32-1.71-.7-.39-.3-.73-.73-.53-1.25.18-.46.64-.63,1.12-.61.33.01.66.11.99.16.09,0,.19-.01.28-.02l-.12-.16c-.26-1.41.73-2.21,1.54-3.06.32-.34.72-.08.98.23.36.44.59.96.75,1.51.01.13.02.27.03.4-.04.32-.08.64-.12.95-.03.18.07.18.2.15.97.03,1.88.15,2.45,1.11.39.67.43,1.08-.38,1.53-.61.33-1.3.37-1.86.77-.14,0-.27-.01-.41-.02-.14-.04-.28-.09-.42-.13-.16-.17-.34-.51-.46.03-.08.72.08,1.52-.77,1.93-.13.01-.26.03-.39.04-.71-.62-.94-1.49-1.16-2.36.12-.18.38-.37-.03-.52Z"/>
    <path class="cls-2" d="m41.91,74.31c.14.95.33,1.83,1.37,2.3.39.17.96.8.52,1.18-.49.41-1.14,1.19-1.9.73-.71-.44-.87.2-.9.42-.07.53-.31.88-.65,1.26-.29.33-.47.96-.97.73-.43-.19-.68-.79-.69-1.31,0-.68-.15-1-.88-1.29-.89-.34-1.67-1.04-2.12-1.98.53-1.19,1.51-1.24,2.6-1.04.33.06.77.43.81-.29,0,0,.02-.03.02-.03.03-1.25.86-2.11,1.53-3.04.71.38.92,1.16,1.39,1.73-.07.2-.24.38-.13.62Z"/>
    <path class="cls-2" d="m63.93,17.04c.85.51,1.52,1.11,1.89,2,.15.37.23.79,0,1.09-.24.32-.55-.15-.81-.11-.83.14-1.54-.58-2.47-.16-.61.28-1.39-.07-1.82-.83-.37-.66-.43-1.22.26-1.67.45-.3.1-.42-.08-.65-.41-.53-1.04-1.11-.43-1.79.51-.56,1.19-1.15,2.01-.39.25.23.17-.03.22-.11.54-.78,1.55-.4,2.25-.89.36-.26.86.77.66,1.51-.25.9-1.02,1.37-1.68,2Z"/>
    <path class="cls-2" d="m37.31,68.71c0-.43-.42-.52-.65-.77-.06-.12-.09-.28-.28-.25,0,0,.02.02.02.02.2-.31-.07-.4-.24-.55-.11-.1-.21-.21-.32-.31-.34-.3-.71-.67-.51-1.13.19-.44.72-.3,1.12-.31.71-.02,1.41-.04,2.05.41.75.53.91.07.87-.6.03-.08.05-.16.08-.23.27-.71.55-1.41,1.22-1.86.66-.43,1.13-.26,1.19.49.09,1.15.2,2.27.66,3.35.2.46.2,1.07-.3,1.46-.49.39-.93.04-1.38-.12-.31-.11-.55-.43-.97-.32-.09.79.06,1.72-1.01,2.03-.18-.01-.36-.03-.53-.04-.28-.32-.55-.64-.83-.96-.07-.11-.14-.22-.21-.32Z"/>
    <path class="cls-2" d="m29.07,7.32c0-.84.88-1.14,1.14-1.86.14-.39.49-.04.68.19.7.85.44,1.85.48,2.81-.03.19.08.2.22.17.16-.02.33-.04.49-.06.13,0,.26,0,.39-.01.51.14,1.05.2,1.46.59.65.63.58,1.06-.25,1.39-.48.19-.76.8-1.39.66-.05-.04-.12-.12-.14-.1-.16.08-.1.21-.06.34-.24.66-.88.76-1.41,1.01-.07-.02-.14-.03-.21-.01-.91-.99-1.92-1.9-2.69-2.99-.49-.69.08-1.53,1.08-1.95.13.02.3.07.22-.17Z"/>
    <path class="cls-1" d="m25.52,69.3c-.66-.7-1.22-1.51-2.14-1.92.02-.2-.07-.32-.27-.35h.02c-.09-.2-.26-.26-.47-.23,0,0,.01,0,.01,0-.23-.22-.45-.43-.68-.65,2-1.12,4.16-1.09,6.34-.92-.1,1.05-1.06,1.7-1.3,2.67-.2.82-.69,1.29-1.52,1.39Z"/>
    <path class="cls-2" d="m64.86,5.3c1.03-.24,2.06-.63,3.1-.64.56,0,.94.82.52,1.43-.37.53-.34.91,0,1.4.21.3.46.69.18,1.04-.28.35-.7.18-1.05.06-.58-.21-1.03-.54-1.78-.11-.52.3-.93-.55-.71-1.01.37-.77.15-1.36-.2-1.99,0-.07-.01-.13-.06-.18Z"/>
    <path class="cls-2" d="m76.25,10.57c.42.26.58-.23.9-.29.35-.07.72-.41,1.03,0,.24.32.52.73.23,1.14-.3.43-.17.75.05,1.14.14.24.39.54.09.82-.25.23-.57.14-.86.03-.44-.16-.8-.22-1.33-.08-.54.15-.95-.49-.75-1.13.11-.33.25-.61.06-.96-.39-.73.03-.76.58-.66Z"/>
    <path class="cls-3" d="m47.64,105.91c.71-.32.92.16,1.08.69-.46,1.58-.97,3.12-2.74,3.73.34-.52,1.2-.97.23-1.67-.17-.63-.23-1.23.47-1.6.06.25.2.48.39.14.22-.41.55-.79.57-1.29Zm.35,1.1c-.38.65-1.14,1.1-1.02,2.11.67-.57.95-1.26,1.19-1.97.02-.13.06-.36.04-.37-.2-.06-.15.13-.2.23Z"/>
    <path class="cls-3" d="m41.67,115.78c.08.08.15.16.23.23-.78.27-1.56.58-2.36.79-.76.2-1.28-.31-1.78-.79,1.02-.89,2.33-.6,3.5-.88-.02.27-.47.46-.18.74.08.08.38-.06.59-.1Z"/>
    <path class="cls-4" d="m25.52,69.3c.83-.11,1.32-.57,1.52-1.39.24-.98,1.2-1.62,1.3-2.67.16.02.31.04.47.05.18.18.42.31.1.6-.93.86-1.39,2.02-1.92,3.14-.33.69-.84.88-1.46.27Z"/>
    <path class="cls-3" d="m38.35,70c.18.01.36.03.53.04.1.45.43.67.81.87.28.15.68.22.57.7-.15.08-.3.15-.45.23-1.03.13-1.3-.79-1.83-1.34.23-.09.69,0,.37-.5Z"/>
    <path class="cls-4" d="m39.81,71.84c.15-.08.3-.15.45-.23.13.12.26.23.39.35-.68.93-1.5,1.78-1.53,3.04-.44-.73-.21-1.39.16-2.08.19-.35.58-.61.53-1.07Z"/>
    <path class="cls-3" d="m46.91,76.43c.02-.7-.71-.88-.95-1.4.98.19,1.32.9,1.37,1.78.04.71,0,1.42,0,2.13-.22-.15-.44-.3-.66-.44.47-.37.18-.87.21-1.31.03-.13.05-.26.08-.38.21-.17.17-.3-.06-.4l.02.03Z"/>
    <path class="cls-3" d="m45.56,74.58c-.41.55-.79-.03-1.18-.04-.67-.02-1.29-.66-2.01-.18-.15-.02-.3-.03-.46-.05-.11-.24.06-.42.13-.62,1.24.04,2.35.58,3.52.89Z"/>
    <path class="cls-3" d="m48.98,104.57c.01-.18.02-.35.03-.53.52-.4.71-.98.87-1.57,0,0-.02.02-.02.02.14-.1.28-.2.43-.3.09.17.18.35.27.52-.37.75-.88,1.39-1.58,1.86Z"/>
    <path class="cls-4" d="m97,61.29c0-1.59,0-3.17,0-4.76.41,1.59.41,3.17,0,4.76Z"/>
    <path class="cls-3" d="m281.68,61.06c0-1.51,0-3.01,0-4.52.4,1.51.4,3.01,0,4.52Z"/>
    <path class="cls-3" d="m252.85,61.06c0-1.51,0-3.01,0-4.52.4,1.51.4,3.01,0,4.52Z"/>
    <path class="cls-4" d="m253.52,86.69c0-1.51,0-3.02,0-4.54.41,1.51.42,3.02,0,4.54Z"/>
    <path class="cls-4" d="m21.99,66.15c.23.22.45.43.68.65-.42-.14-1.03.07-1.13-.63.15,0,.3-.01.45-.02Z"/>
    <path class="cls-1" d="m49.68,80.53c-.43-.06-.85-.14-.93-.68.54-.09.76.26.93.68Z"/>
    <path class="cls-1" d="m54.51,97.27c.17-.1.29-.31.54-.27-.2.27-.39.55-.59.82.02-.18.03-.37.05-.55Z"/>
    <path class="cls-4" d="m211.88,61.53c.22-.16.46-.24.73-.15-.22.18-.47.21-.73.15Z"/>
    <path class="cls-4" d="m215.08,61.37c.27-.08.51,0,.73.16-.27.06-.52.03-.73-.16Z"/>
    <path class="cls-4" d="m20.86,65.91s.03.01.03.01-.03-.01-.03-.01Z"/>
    <path class="cls-2" d="m30.41,77.71c.17,1.46.51,2.89.49,4.37,0,.41-.25.6-.58.76-.43.22-.73-.04-.94-.31-.47-.62-.66-.48-.79.2-.1.48-.49.93-.87.93-.42,0-.89-.32-1.12-.82-.5-1.13-.9-2.32-1.57-3.38.72-.66,1.47-.22,2.21-.07,0,0-.02-.02-.02-.02.06.17.19.24.35.26.06.07.12.14.18.21.31.29.59.83.8-.11.22-.99.7-1.84,1.85-2.03Z"/>
    <path class="cls-2" d="m43.91,85.38c.39,1.14.53,2.34.47,3.53-.02.5-.38,1.02-1.09.53-.3-.21-.54-.33-.86.18-.54.86-1.06.77-1.55-.19-.44-.87-.81-1.77-1.21-2.66.57-.44,1.17-.17,1.76-.06,0,0-.02-.01-.02-.01.09.07.17.15.26.22,0,0-.02-.01-.02-.01.19.17.37.34.63.58.3-.95.59-1.83,1.61-2.1Z"/>
    <path class="cls-2" d="m37.1,82.34c.61.82.47,1.83.64,2.75.07.4-.53.72-.61.64-.88-.8-.9.12-1.29.52-.4.42-1.04.19-1.21-.24-.27-.71-.85-1.19-1.13-1.87.13-.08.25-.16.38-.24.7-.44,1.52.54,1.96.06.44-.48.55-1.29,1.26-1.63Z"/>
    <path class="cls-4" d="m37.1,82.34c-.71.34-.81,1.15-1.26,1.63-.44.47-1.26-.5-1.96-.06-.13.08-.25.16-.38.24-.46-.36-.28-.6.15-.77.42-.16.83-.03,1.2.14.61.29.87.14.96-.52.04-.28.21-.57.4-.79.32-.36.68-.51.89.13Z"/>
    <path class="cls-4" d="m39.1,75.02c-.05.73-.49.35-.81.29-1.08-.2-2.07-.15-2.6,1.04-.46-.99.06-1.35.94-1.53.85-.17,1.64.28,2.47.2Z"/>
    <path class="cls-4" d="m30.41,77.71c-1.15.19-1.63,1.04-1.85,2.03-.21.93-.49.4-.8.11.74-.35.53-1.21.93-1.76.59-.82,1.05-.96,1.72-.38Z"/>
    <path class="cls-4" d="m43.91,85.38c-1.03.27-1.31,1.15-1.61,2.1-.26-.24-.45-.41-.63-.58.83-.04.53-.87.88-1.26.42-.46.71-1.16,1.36-.26Z"/>
    <path class="cls-4" d="m27.25,79.4c-.74-.15-1.49-.59-2.21.07-.39-.38-.34-.67.21-.74.76-.1,1.49-.02,2,.67Z"/>
    <path class="cls-4" d="m41.44,86.71c-.59-.11-1.19-.38-1.76.06-.37-.38-.34-.66.23-.71.61-.05,1.16.1,1.53.65Z"/>
    <path class="cls-4" d="m16.41,69.36c-.27.91-.43,1.82-.37,2.81-.71-.77-.61-1.55.37-2.81Z"/>
    <path class="cls-4" d="m41.68,86.92c-.09-.07-.17-.15-.26-.22.09.07.17.15.26.22Z"/>
    <path class="cls-4" d="m27.58,79.64c-.17-.02-.3-.09-.35-.26.12.09.24.17.35.26Z"/>
    <path class="cls-4" d="m22.66,66.79c.21-.03.38.03.47.25-.22.03-.4,0-.47-.25Z"/>
    <path class="cls-4" d="m23.11,67.02c.2.03.29.15.27.35-.09-.12-.18-.23-.27-.35Z"/>
    <path class="cls-1" d="m34.75,68c.08-.02.17-.03.25-.05,0,.05.01.1.02.15-.09-.04-.18-.08-.26-.12,0,0-.01.02-.01.02Z"/>
    <g>
      <path class="cls-1" d="m80.9,61.63h-10v-4.74h25.6v4.74h-10v25.43h-5.6v-25.43Z"/>
      <path class="cls-1" d="m120.47,87.06l-6.16-8.83c-.26.03-.65.04-1.16.04h-6.81v8.79h-5.6v-30.17h12.41c2.61,0,4.89.43,6.83,1.29,1.94.86,3.43,2.1,4.46,3.71,1.03,1.61,1.55,3.52,1.55,5.73s-.55,4.22-1.66,5.86c-1.11,1.64-2.69,2.86-4.76,3.66l6.94,9.91h-6.03Zm-2.03-23.88c-1.26-1.04-3.12-1.55-5.56-1.55h-6.55v12.02h6.55c2.44,0,4.29-.52,5.56-1.57,1.26-1.05,1.9-2.54,1.9-4.46s-.63-3.4-1.9-4.44Z"/>
      <path class="cls-1" d="m151.8,80.07h-15.08l-2.97,6.98h-5.77l13.58-30.17h5.52l13.62,30.17h-5.86l-3.02-6.98Zm-1.85-4.4l-5.69-13.19-5.65,13.19h11.33Z"/>
      <path class="cls-1" d="m191.32,56.89v30.17h-4.61l-16.64-20.43v20.43h-5.56v-30.17h4.61l16.64,20.43v-20.43h5.56Z"/>
      <path class="cls-1" d="m205.13,85.48c-2.46-1.34-4.38-3.18-5.77-5.54-1.39-2.36-2.09-5.01-2.09-7.97s.7-5.62,2.11-7.97c1.41-2.36,3.34-4.2,5.8-5.54,2.46-1.34,5.21-2,8.25-2,2.47,0,4.73.43,6.77,1.29,2.04.86,3.76,2.11,5.17,3.75l-3.62,3.4c-2.18-2.36-4.87-3.53-8.06-3.53-2.07,0-3.92.45-5.56,1.36-1.64.91-2.92,2.16-3.83,3.77-.92,1.61-1.38,3.43-1.38,5.47s.46,3.87,1.38,5.47c.92,1.61,2.2,2.87,3.83,3.77,1.64.91,3.49,1.36,5.56,1.36,3.19,0,5.88-1.19,8.06-3.58l3.62,3.45c-1.41,1.64-3.14,2.89-5.19,3.75-2.05.86-4.32,1.29-6.79,1.29-3.05,0-5.8-.67-8.25-2Z"/>
      <path class="cls-1" d="m253.38,82.36v4.7h-22.63v-30.17h22.02v4.7h-16.42v7.84h14.57v4.61h-14.57v8.32h17.02Z"/>
      <path class="cls-1" d="m265.23,61.59v9.18h14.57v4.74h-14.57v11.55h-5.6v-30.17h22.02v4.7h-16.42Z"/>
      <path class="cls-1" d="m292.51,85.48c-2.47-1.34-4.41-3.19-5.82-5.56-1.41-2.37-2.11-5.02-2.11-7.95s.7-5.58,2.11-7.95c1.41-2.37,3.35-4.22,5.82-5.56,2.47-1.34,5.24-2,8.32-2s5.85.67,8.32,2c2.47,1.34,4.41,3.18,5.82,5.54,1.41,2.36,2.11,5.01,2.11,7.97s-.7,5.62-2.11,7.97c-1.41,2.36-3.35,4.2-5.82,5.54-2.47,1.34-5.24,2-8.32,2s-5.85-.67-8.32-2Zm13.75-4.27c1.61-.9,2.87-2.17,3.79-3.79.92-1.62,1.38-3.44,1.38-5.45s-.46-3.83-1.38-5.45c-.92-1.62-2.18-2.89-3.79-3.79-1.61-.9-3.42-1.36-5.43-1.36s-3.82.45-5.43,1.36c-1.61.91-2.87,2.17-3.79,3.79-.92,1.62-1.38,3.44-1.38,5.45s.46,3.83,1.38,5.45c.92,1.62,2.18,2.89,3.79,3.79,1.61.91,3.42,1.36,5.43,1.36s3.82-.45,5.43-1.36Z"/>
      <path class="cls-1" d="m342.76,87.06l-6.16-8.83c-.26.03-.65.04-1.16.04h-6.81v8.79h-5.6v-30.17h12.41c2.61,0,4.89.43,6.83,1.29,1.94.86,3.43,2.1,4.46,3.71s1.55,3.52,1.55,5.73-.55,4.22-1.66,5.86c-1.11,1.64-2.69,2.86-4.76,3.66l6.94,9.91h-6.03Zm-2.03-23.88c-1.26-1.04-3.12-1.55-5.56-1.55h-6.55v12.02h6.55c2.44,0,4.29-.52,5.56-1.57,1.26-1.05,1.9-2.54,1.9-4.46s-.63-3.4-1.9-4.44Z"/>
      <path class="cls-1" d="m382.23,87.06l-.04-20-9.91,16.55h-2.5l-9.91-16.29v19.74h-5.34v-30.17h4.61l11.98,20,11.77-20h4.61l.04,30.17h-5.3Z"/>
    </g>
    <g>
      <path class="cls-2" d="m186.46,98.64l-7.34,13.16h-3.03l-1.77-9.07-5.15,9.07h-2.98l-2.41-13.16h2.81l1.67,9.68,5.49-9.68h2.64l1.75,9.68,5.42-9.68h2.91Z"/>
      <path class="cls-2" d="m188.48,98.64h3.08l-2.61,13.16h-3.08l2.61-13.16Zm.91-2.67c-.35-.34-.52-.74-.52-1.22,0-.56.19-1.03.58-1.4.39-.38.89-.57,1.51-.57.54,0,.99.16,1.33.48s.52.71.52,1.17c0,.61-.19,1.1-.58,1.48-.39.38-.89.57-1.51.57-.54,0-.99-.17-1.33-.51Z"/>
      <path class="cls-2" d="m197.32,107.39c-.03.26-.05.45-.05.57,0,.99.52,1.48,1.55,1.48.64,0,1.22-.17,1.72-.52l.54,2.27c-.84.53-1.9.79-3.18.79-1.13,0-2.04-.31-2.73-.94s-1.04-1.49-1.04-2.59c0-.36.03-.71.1-1.03l1.26-6.21h-2.14l.49-2.46h2.14l.59-3h3.08l-.62,3h3.55l-.49,2.46h-3.55l-1.23,6.18Z"/>
      <path class="cls-2" d="m216.72,99.65c.86.77,1.29,1.87,1.29,3.3,0,.39-.06.91-.17,1.55l-1.45,7.29h-3.08l1.43-7.22c.07-.33.1-.67.1-1.01,0-1.59-.88-2.39-2.64-2.39-1.13,0-2.07.32-2.81.95s-1.24,1.58-1.5,2.84l-1.38,6.82h-3.08l3.65-18.28h3.08l-1.28,6.43c1.13-.97,2.58-1.45,4.34-1.45,1.48,0,2.65.39,3.51,1.16Z"/>
      <path class="cls-2" d="m242.34,95.92c1.14.91,1.71,2.19,1.71,3.83,0,1.46-.33,2.72-1,3.78-.67,1.06-1.62,1.87-2.86,2.44-1.24.57-2.7.85-4.37.85h-4.21l-1.01,4.98h-3.2l3.45-17.24h6.65c2.08,0,3.7.46,4.84,1.37Zm-2.78,7.14c.85-.7,1.27-1.7,1.27-3.02,0-.92-.32-1.61-.95-2.08-.63-.47-1.54-.7-2.72-.7h-3.65l-1.35,6.85h3.79c1.56,0,2.76-.35,3.61-1.05Z"/>
      <path class="cls-2" d="m247.83,111.24c-.96-.48-1.7-1.16-2.23-2.03-.53-.87-.79-1.88-.79-3.03,0-1.46.33-2.78,1-3.94.67-1.17,1.59-2.08,2.78-2.75,1.19-.67,2.53-1,4.03-1,1.28,0,2.41.24,3.38.71.97.48,1.72,1.15,2.24,2.02.53.87.79,1.88.79,3.03,0,1.46-.34,2.78-1.01,3.94-.67,1.17-1.61,2.09-2.8,2.76-1.19.67-2.53,1.01-4.03,1.01-1.28,0-2.4-.24-3.36-.73Zm5.89-2.54c.68-.42,1.22-1,1.61-1.75.39-.75.59-1.6.59-2.55,0-1.03-.3-1.84-.91-2.43s-1.46-.88-2.56-.88c-.87,0-1.65.21-2.33.63-.68.42-1.22,1-1.61,1.75-.39.75-.59,1.6-.59,2.55,0,1.04.3,1.84.91,2.43s1.46.87,2.56.87c.87,0,1.65-.21,2.33-.63Z"/>
      <path class="cls-2" d="m263.72,111.24c-.96-.48-1.7-1.16-2.23-2.03-.53-.87-.79-1.88-.79-3.03,0-1.46.33-2.78,1-3.94.67-1.17,1.59-2.08,2.78-2.75,1.19-.67,2.53-1,4.03-1,1.28,0,2.41.24,3.38.71.97.48,1.72,1.15,2.24,2.02.53.87.79,1.88.79,3.03,0,1.46-.34,2.78-1.01,3.94-.67,1.17-1.61,2.09-2.8,2.76-1.19.67-2.53,1.01-4.03,1.01-1.28,0-2.4-.24-3.36-.73Zm5.89-2.54c.68-.42,1.22-1,1.61-1.75.39-.75.59-1.6.59-2.55,0-1.03-.3-1.84-.91-2.43s-1.46-.88-2.56-.88c-.87,0-1.65.21-2.33.63-.68.42-1.22,1-1.61,1.75-.39.75-.59,1.6-.59,2.55,0,1.04.3,1.84.91,2.43s1.46.87,2.56.87c.87,0,1.65-.21,2.33-.63Z"/>
      <path class="cls-2" d="m271.35,115.99l1.28-2.29c.48.35,1.06.52,1.75.52.59,0,1.05-.17,1.39-.5.34-.34.59-.88.75-1.61l2.69-13.45h3.08l-2.69,13.4c-.62,3.14-2.36,4.71-5.22,4.71-1.25,0-2.26-.25-3.03-.76Zm8.75-20.02c-.34-.34-.52-.74-.52-1.22,0-.56.19-1.03.58-1.4s.89-.57,1.51-.57c.54,0,.99.16,1.33.48.34.32.52.71.52,1.17,0,.61-.19,1.1-.58,1.48-.39.38-.89.57-1.52.57-.54,0-.99-.17-1.33-.51Z"/>
      <path class="cls-2" d="m299.21,98.64l-2.61,13.16h-2.93l.27-1.35c-1.15,1.02-2.58,1.53-4.29,1.53-1.08,0-2.07-.23-2.94-.69-.88-.46-1.57-1.13-2.08-2.01-.51-.88-.76-1.91-.76-3.09,0-1.46.32-2.78.97-3.95.65-1.17,1.54-2.09,2.66-2.75,1.12-.66,2.39-.99,3.78-.99,2.1,0,3.6.7,4.48,2.09l.37-1.95h3.08Zm-6.44,10.06c.68-.42,1.22-1,1.61-1.75.39-.75.59-1.6.59-2.55,0-1.03-.3-1.84-.91-2.43s-1.46-.88-2.56-.88c-.87,0-1.65.21-2.33.63-.68.42-1.22,1-1.61,1.75-.39.75-.59,1.6-.59,2.55,0,1.04.3,1.84.91,2.43s1.46.87,2.56.87c.87,0,1.65-.21,2.33-.63Z"/>
    </g>
  </g>
</svg>